EMG_gait_6.mot
nRows=20
nColumns=25

name EMG_gait_6.mot
datacolumns 25
datarows 20
range 1.1530000000 1.1720000000
endheader
Time	HamL_r	TA_r	PerL_r	GL_r	HamM_r	Sol_r	VL_r	VM_r	PerB_l	TA_l	PerL_l	GL_l	GM_l	Sol_l	VL_l	VM_l	AddL_l	RF_l	TFL_l	GluMed_l	HamL_l	HamM_l	GluMed_r	RF_r
        1.1530000000	        0.4261844873	        0.6202509382	        0.4727584543	        0.3897375028	        0.2216195466	        0.7537699665	        0.0687944613	        0.5111640857	        0.0639785520	        0.3869764804	        0.2271579495	        0.0386244813	        0.0859746542	        0.0863600823	        0.2972551059	        0.2238699118	        0.4753061785	        0.2075040819	        0.0745366134	        0.0601908838	        0.5839144589	        0.6764175420	        0.0604699341	        0.1489665826	
        1.1540000000	        0.4266428305	        0.6120998340	        0.4722579432	        0.3849395746	        0.2145802004	        0.7490265408	        0.0691051540	        0.5002174509	        0.0642339629	        0.3929140912	        0.2284421329	        0.0388804890	        0.0853718030	        0.0865436971	        0.3022361589	        0.2284957599	        0.4868406473	        0.2094243894	        0.0747067942	        0.0593154059	        0.5871380267	        0.6702192010	        0.0591591825	        0.1485850702	
        1.1550000000	        0.4273378984	        0.6037042854	        0.4718306982	        0.3804945180	        0.2078453435	        0.7440295906	        0.0693902029	        0.4891356627	        0.0644764741	        0.3987807401	        0.2296937281	        0.0391461767	        0.0847053992	        0.0867205586	        0.3071391308	        0.2335024814	        0.4981901069	        0.2112123144	        0.0748607418	        0.0584204923	        0.5897809489	        0.6635875222	        0.0578852345	        0.1481261938	
        1.1560000000	        0.4282621368	        0.5950813007	        0.4714845953	        0.3764184464	        0.2014312581	        0.7387972928	        0.0696484775	        0.4779473027	        0.0647053910	        0.4045626941	        0.2309145437	        0.0394213705	        0.0839787704	        0.0868906188	        0.3119578121	        0.2388995580	        0.5093249081	        0.2128646094	        0.0749956016	        0.0575075244	        0.5918344646	        0.6565291974	        0.0566461811	        0.1475896417	
        1.1570000000	        0.4294071753	        0.5862486572	        0.4712272958	        0.3727257506	        0.1953525512	        0.7333479873	        0.0698789744	        0.4666812146	        0.0649200549	        0.4102464323	        0.2321066449	        0.0397058747	        0.0831953813	        0.0870538344	        0.3166861783	        0.2446952927	        0.5202158913	        0.2143783888	        0.0751085738	        0.0565779347	        0.5932918854	        0.6490521926	        0.0554401307	        0.1469754344	
        1.1580000000	        0.4307638714	        0.5772248718	        0.4710662183	        0.3694290683	        0.1896220900	        0.7277000707	        0.0700808215	        0.4553664177	        0.0651198496	        0.4158187253	        0.2332723582	        0.0399994728	        0.0823588156	        0.0872101685	        0.3213184228	        0.2508967401	        0.5308345021	        0.2157511303	        0.0751969213	        0.0556331996	        0.5941485987	        0.6411657285	        0.0542652217	        0.1462839267	
        1.1590000000	        0.4323223575	        0.5680291662	        0.4710085116	        0.3665392631	        0.1842509496	        0.7218718922	        0.0702532818	        0.4440320216	        0.0653042070	        0.4212667152	        0.2344142744	        0.0403019283	        0.0814727599	        0.0873595913	        0.3258489898	        0.2575096399	        0.5411529049	        0.2169806745	        0.0752579785	        0.0546748310	        0.5944020620	        0.6328802523	        0.0531196343	        0.1455158094	
        1.1600000000	        0.4340720942	        0.5586814273	        0.4710610290	        0.3640654156	        0.1792483709	        0.7158816525	        0.0703957565	        0.4327071426	        0.0654726134	        0.4265779951	        0.2355352512	        0.0406129856	        0.0805409865	        0.0875020821	        0.3302726069	        0.2645383553	        0.5511440941	        0.2180652232	        0.0752891582	        0.0537043696	        0.5940517858	        0.6242074039	        0.0520016017	        0.1446721086	
        1.1610000000	        0.4360019256	        0.5492021597	        0.4712303042	        0.3620148231	        0.1746217315	        0.7097473049	        0.0705077873	        0.4214208220	        0.0656246158	        0.4317406899	        0.2366384136	        0.0409323707	        0.0795673373	        0.0876376308	        0.3345843155	        0.2719858164	        0.5607820042	        0.2190033357	        0.0752879590	        0.0527233771	        0.5930993085	        0.6151599766	        0.0509094202	        0.1437541849	
        1.1620000000	        0.4381001399	        0.5396124329	        0.4715225270	        0.3603930103	        0.1703765282	        0.7034864607	        0.0705890581	        0.4102019456	        0.0657598279	        0.4367435349	        0.2377271527	        0.0412597922	        0.0785557071	        0.0877662399	        0.3387795012	        0.2798534691	        0.5700416155	        0.2197939241	        0.0752519718	        0.0517334300	        0.5915481628	        0.6057518720	        0.0498414593	        0.1427637303	
        1.1630000000	        0.4403545337	        0.5299338211	        0.4719435205	        0.3592037490	        0.1665163718	        0.6971162984	        0.0706393961	        0.3990791661	        0.0658779365	        0.4415759523	        0.2388051228	        0.0415949421	        0.0775100286	        0.0878879265	        0.3428539214	        0.2881412307	        0.5788990571	        0.2204362469	        0.0751788858	        0.0507361130	        0.5894038357	        0.5959980505	        0.0487961697	        0.1417027634	
        1.1640000000	        0.4427524790	        0.5201883375	        0.4724987175	        0.3584490877	        0.1630429950	        0.6906534769	        0.0706587717	        0.3880808262	        0.0659787075	        0.4462281263	        0.2398762364	        0.0419374968	        0.0764342569	        0.0880027244	        0.3468037315	        0.2968474517	        0.5873317054	        0.2209299011	        0.0750664937	        0.0497330130	        0.5866737213	        0.5859144775	        0.0477720916	        0.1405736232	
        1.1650000000	        0.4452809941	        0.5103983624	        0.4731931368	        0.3581293895	        0.1599562712	        0.6841140544	        0.0706472980	        0.3772348853	        0.0660619917	        0.4506910725	        0.2409446573	        0.0422871177	        0.0753323544	        0.0881106861	        0.3506255089	        0.3059688848	        0.5953182786	        0.2212748135	        0.0749126978	        0.0487257140	        0.5833670687	        0.5755180659	        0.0467678613	        0.1393789610	
        1.1660000000	        0.4479268159	        0.5005865670	        0.4740313587	        0.3582433780	        0.1572542469	        0.6775134120	        0.0706052288	        0.3665688472	        0.0661277300	        0.4549567045	        0.2420147913	        0.0426434522	        0.0742082774	        0.0882118855	        0.3543162741	        0.3155006626	        0.6028389256	        0.2214712308	        0.0747155140	        0.0477157924	        0.5794949250	        0.5648266157	        0.0457822166	        0.1381217301	
        1.1670000000	        0.4506764752	        0.4907758332	        0.4750175000	        0.3587881909	        0.1549331848	        0.6708661833	        0.0705329567	        0.3561096910	        0.0661759592	        0.4590178937	        0.2430912758	        0.0430061342	        0.0730659621	        0.0883064194	        0.3578735088	        0.3254362814	        0.6098753097	        0.2215197087	        0.0744730770	        0.0467048123	        0.5750700742	        0.5538587511	        0.0448140020	        0.1368051744	
        1.1680000000	        0.4535163715	        0.4809891698	        0.4761551895	        0.3597594399	        0.1529876181	        0.6641861893	        0.0704310093	        0.3458838039	        0.0662068164	        0.4628685234	        0.2441789662	        0.0433747851	        0.0719093117	        0.0883944102	        0.3612951716	        0.3357675954	        0.6164106845	        0.2214211001	        0.0741836443	        0.0456943223	        0.5701069717	        0.5426338546	        0.0438621715	        0.1354328141	
        1.1690000000	        0.4564328497	        0.4712496270	        0.4774475432	        0.3611512763	        0.1514104160	        0.6574863805	        0.0703000454	        0.3359169178	        0.0662205434	        0.4665035347	        0.2452829214	        0.0437490141	        0.0707421842	        0.0884760077	        0.3645797092	        0.3464848175	        0.6224299642	        0.2211765438	        0.0738456013	        0.0446858519	        0.5646216770	        0.5311720014	        0.0429257915	        0.1340084306	
        1.1700000000	        0.4594122747	        0.4615802092	        0.4788971410	        0.3629564625	        0.1501928592	        0.6507787846	        0.0701408496	        0.3262340476	        0.0662174901	        0.4699189650	        0.2464083861	        0.0441284196	        0.0695683809	        0.0885513913	        0.3677260644	        0.3575765297	        0.6279197841	        0.2207874510	        0.0734574652	        0.0436809095	        0.5586317829	        0.5194938910	        0.0420040422	        0.1325360490	
        1.1710000000	        0.4624411070	        0.4520037883	        0.4805060045	        0.3651664469	        0.1493247253	        0.6440744628	        0.0699543272	        0.3168594334	        0.0661981182	        0.4731119769	        0.2475607719	        0.0445125888	        0.0683916352	        0.0886207721	        0.3707336811	        0.3690297024	        0.6328685528	        0.2202554938	        0.0730178895	        0.0426809805	        0.5521563421	        0.5076207796	        0.0410962171	        0.1310199192	
        1.1720000000	        0.4655059748	        0.4425430161	        0.4822755770	        0.3677714435	        0.1487943835	        0.6373834727	        0.0697414970	        0.3078164852	        0.0661630031	        0.4760808783	        0.2487456356	        0.0449010995	        0.0672156026	        0.0886843945	        0.3736025056	        0.3808297216	        0.6372664945	        0.2195825920	        0.0725256687	        0.0416875256	        0.5452157927	        0.4955744121	        0.0402017230	        0.1294644952	
